<?xml version="1.0" standalone="no"?>
<!DOCTYPE svg PUBLIC "-//W3C//DTD SVG 20010904//EN"
 "http://www.w3.org/TR/2001/REC-SVG-20010904/DTD/svg10.dtd">
<svg version="1.0" xmlns="http://www.w3.org/2000/svg"
 width="512.000000pt" height="512.000000pt" viewBox="0 0 512.000000 512.000000"
 preserveAspectRatio="xMidYMid meet">
<metadata>
Created by potrace 1.14, written by Peter Selinger 2001-2017
</metadata>
<g transform="translate(0.000000,512.000000) scale(0.100000,-0.100000)"
fill="#000000" stroke="none">
<path d="M1953 4566 c-96 -31 -187 -118 -223 -214 -19 -50 -22 -79 -23 -249
-1 -106 -4 -194 -7 -194 -3 -1 -255 -3 -560 -4 -529 -2 -558 -3 -612 -23 -136
-48 -239 -159 -277 -297 -8 -28 -10 -437 -8 -1385 l2 -1345 31 -65 c39 -81 96
-145 165 -187 113 -67 -29 -63 2119 -63 2148 0 2006 -4 2119 63 69 42 126 106
165 187 l31 65 3 1340 c3 1221 1 1345 -14 1400 -38 140 -136 241 -279 290 -45
16 -110 17 -610 19 l-560 1 -2 195 c-1 173 -4 201 -23 252 -28 75 -101 155
-177 193 l-58 30 -580 2 c-457 2 -589 -1 -622 -11z m1157 -156 c51 -14 98 -54
121 -105 16 -34 19 -67 19 -220 l0 -180 -690 0 -690 -1 0 181 c0 196 9 234 63
283 52 49 67 50 620 51 335 1 532 -2 557 -9z"/>
</g>
</svg>
